<!-- Generated by IcoMoon.io -->
<svg version="1.1" xmlns="http://www.w3.org/2000/svg" width="32" height="28" viewBox="0 0 32 28">
<title>books</title>
<path d="M6.125 3.5h-5.25c-0.481 0-0.875 0.394-0.875 0.875v19.25c0 0.481 0.394 0.875 0.875 0.875h5.25c0.481 0 0.875-0.394 0.875-0.875v-19.25c0-0.481-0.394-0.875-0.875-0.875zM5.25 8.75h-3.5v-1.75h3.5v1.75z"></path>
<path d="M14.875 3.5h-5.25c-0.481 0-0.875 0.394-0.875 0.875v19.25c0 0.481 0.394 0.875 0.875 0.875h5.25c0.481 0 0.875-0.394 0.875-0.875v-19.25c0-0.481-0.394-0.875-0.875-0.875zM14 8.75h-3.5v-1.75h3.5v1.75z"></path>
<path d="M20.92 4.853l-4.688 2.362c-0.43 0.217-0.604 0.745-0.388 1.175l7.874 15.628c0.217 0.43 0.745 0.604 1.175 0.388l4.688-2.362c0.43-0.217 0.604-0.745 0.388-1.175l-7.874-15.628c-0.217-0.43-0.745-0.604-1.175-0.388z"></path>
</svg>
