<!-- Generated by IcoMoon.io -->
<svg version="1.1" xmlns="http://www.w3.org/2000/svg" width="28" height="28" viewBox="0 0 28 28">
<title>compass</title>
<path d="M14 0c-7.732 0-14 6.268-14 14s6.268 14 14 14 14-6.268 14-14-6.268-14-14-14zM2.625 14c0-6.282 5.093-11.375 11.375-11.375 2.996 0 5.721 1.159 7.753 3.052l-11.253 4.823-4.823 11.253c-1.893-2.032-3.052-4.757-3.052-7.753zM16.001 16.001l-7.002 3.001 3.001-7.002 4.001 4.001zM14 25.375c-2.996 0-5.721-1.159-7.753-3.052l11.253-4.823 4.823-11.253c1.893 2.032 3.052 4.757 3.052 7.753 0 6.282-5.093 11.375-11.375 11.375z"></path>
</svg>
