<!-- Generated by IcoMoon.io -->
<svg version="1.1" xmlns="http://www.w3.org/2000/svg" width="28" height="28" viewBox="0 0 28 28">
<title>database</title>
<path d="M14 0c-7.732 0-14 1.959-14 4.375v3.5c0 2.416 6.268 4.375 14 4.375s14-1.959 14-4.375v-3.5c0-2.416-6.268-4.375-14-4.375z"></path>
<path d="M14 14.875c-7.732 0-14-1.959-14-4.375v5.25c0 2.416 6.268 4.375 14 4.375s14-1.959 14-4.375v-5.25c0 2.416-6.268 4.375-14 4.375z"></path>
<path d="M14 22.75c-7.732 0-14-1.959-14-4.375v5.25c0 2.416 6.268 4.375 14 4.375s14-1.959 14-4.375v-5.25c0 2.416-6.268 4.375-14 4.375z"></path>
</svg>
