<!-- Generated by IcoMoon.io -->
<svg version="1.1" xmlns="http://www.w3.org/2000/svg" width="28" height="28" viewBox="0 0 28 28">
<title>go</title>
<path d="M14.875 28c-0.063 0-0.126-0.007-0.19-0.021-0.401-0.089-0.686-0.444-0.686-0.854v-13.125h-13.125c-0.41 0-0.765-0.285-0.854-0.686s0.112-0.809 0.484-0.982l26.25-12.25c0.333-0.156 0.729-0.086 0.989 0.174s0.33 0.655 0.174 0.989l-12.25 26.25c-0.146 0.313-0.459 0.505-0.793 0.505zM4.819 12.25h10.056c0.483 0 0.875 0.392 0.875 0.875v10.056l9.565-20.495-20.495 9.565z"></path>
</svg>
