<!-- Generated by IcoMoon.io -->
<svg version="1.1" xmlns="http://www.w3.org/2000/svg" width="28" height="28" viewBox="0 0 28 28">
<title>hsp</title>
<path d="M7.875 15.75h-1.75v12.25h1.75c0.481 0 0.875-0.394 0.875-0.875v-10.5c0-0.481-0.394-0.875-0.875-0.875z"></path>
<path d="M20.125 15.75c-0.481 0-0.875 0.394-0.875 0.875v10.5c0 0.481 0.394 0.875 0.875 0.875h1.75v-12.25h-1.75z"></path>
<path d="M28 14c0-7.732-6.268-14-14-14s-14 6.268-14 14c0 1.679 0.296 3.289 0.838 4.781-0.533 0.908-0.838 1.965-0.838 3.094 0 3.086 2.282 5.638 5.25 6.063v-12.125c-0.873 0.125-1.686 0.433-2.4 0.885-0.147-0.731-0.225-1.487-0.225-2.261 0-6.282 5.093-11.375 11.375-11.375s11.375 5.093 11.375 11.375c0 0.774-0.077 1.53-0.225 2.261-0.714-0.452-1.527-0.761-2.4-0.886v12.125c2.968-0.425 5.25-2.977 5.25-6.062 0-1.129-0.306-2.186-0.838-3.094 0.542-1.492 0.838-3.102 0.838-4.781z"></path>
</svg>
