<!-- Generated by IcoMoon.io -->
<svg version="1.1" xmlns="http://www.w3.org/2000/svg" width="28" height="28" viewBox="0 0 28 28">
<title>image</title>
<path d="M26.247 3.5c0.001 0.001 0.002 0.002 0.003 0.003v20.994c-0.001 0.001-0.002 0.002-0.003 0.003h-24.494c-0.001-0.001-0.002-0.002-0.003-0.003v-20.994c0.001-0.001 0.002-0.002 0.003-0.003h24.494zM26.25 1.75h-24.5c-0.963 0-1.75 0.788-1.75 1.75v21c0 0.963 0.787 1.75 1.75 1.75h24.5c0.963 0 1.75-0.787 1.75-1.75v-21c0-0.962-0.787-1.75-1.75-1.75v0z"></path>
<path d="M22.75 7.875c0 1.45-1.175 2.625-2.625 2.625s-2.625-1.175-2.625-2.625 1.175-2.625 2.625-2.625 2.625 1.175 2.625 2.625z"></path>
<path d="M24.5 22.75h-21v-3.5l6.125-10.5 7 8.75h1.75l6.125-5.25z"></path>
</svg>
