<!-- Generated by IcoMoon.io -->
<svg version="1.1" xmlns="http://www.w3.org/2000/svg" width="28" height="28" viewBox="0 0 28 28">
<title>profile</title>
<path d="M23.625 0h-21c-1.444 0-2.625 1.181-2.625 2.625v22.75c0 1.444 1.181 2.625 2.625 2.625h21c1.444 0 2.625-1.181 2.625-2.625v-22.75c0-1.444-1.181-2.625-2.625-2.625zM22.75 24.5h-19.25v-21h19.25v21zM7 15.75h12.25v1.75h-12.25zM7 19.25h12.25v1.75h-12.25zM8.75 7.875c0-1.45 1.175-2.625 2.625-2.625s2.625 1.175 2.625 2.625c0 1.45-1.175 2.625-2.625 2.625s-2.625-1.175-2.625-2.625zM13.125 10.5h-3.5c-1.444 0-2.625 0.787-2.625 1.75v1.75h8.75v-1.75c0-0.963-1.181-1.75-2.625-1.75z"></path>
</svg>
