<!-- Generated by IcoMoon.io -->
<svg version="1.1" xmlns="http://www.w3.org/2000/svg" width="28" height="28" viewBox="0 0 28 28">
<title>studio</title>
<path d="M8.313 16.625c0 3.141 2.546 5.688 5.688 5.688s5.688-2.546 5.688-5.688-2.546-5.688-5.688-5.688-5.688 2.546-5.688 5.688zM26.25 7h-6.125c-0.438-1.75-0.875-3.5-2.625-3.5h-7c-1.75 0-2.188 1.75-2.625 3.5h-6.125c-0.963 0-1.75 0.788-1.75 1.75v15.75c0 0.963 0.787 1.75 1.75 1.75h24.5c0.963 0 1.75-0.787 1.75-1.75v-15.75c0-0.962-0.787-1.75-1.75-1.75zM14 24.391c-4.289 0-7.766-3.477-7.766-7.766s3.477-7.766 7.766-7.766c4.289 0 7.766 3.477 7.766 7.766s-3.477 7.766-7.766 7.766zM26.25 12.25h-3.5v-1.75h3.5v1.75z"></path>
</svg>
